{
	"asset":{
		"version":"2.0",
		"generator":"Created using the official Cinema 4D glTF Exporter 1.000x284978"
	},
	"textures":[{
		"sampler":0,
		"source":0
	}],
	"scenes":[{
		"nodes":[0]
	}],
	"nodes":[{
		"name":"C132205_Parva_0",
		"translation":[0.3513929843902588,
		0.4033537805080414,
		0.3991308808326721],
		"rotation":[1.0,
		-6.123234262925839e-17,
		6.123234262925839e-17,
		2.1855694143368966e-8],
		"scale":[1.0,
		1.0,
		1.0],
		"mesh":0
	}],
	"samplers":[{
		"magFilter":9729,
		"minFilter":9729,
		"wrapS":10497,
		"wrapT":10497
	}],
	"meshes":[{
		"name":"C132205_Parva_0",
		"primitives":[{
			"attributes":{
				"POSITION":1,
				"NORMAL":2,
				"TEXCOORD_0":3
			},
			"indices":0,
			"material":0
		}]
	}],
	"accessors":[{
		"bufferView":0,
		"type":"SCALAR",
		"componentType":5123,
		"count":10245,
		"byteOffset":0,
		"min":[0],
		"max":[2871]
	},
	{
		"bufferView":1,
		"type":"VEC3",
		"componentType":5126,
		"count":2872,
		"byteOffset":0,
		"min":[-0.4512211084365845,
		-0.8600916862487793,
		-0.31596601009368899],
		"max":[0.4512214958667755,
		0.8574373722076416,
		1.2358289957046509]
	},
	{
		"bufferView":1,
		"type":"VEC3",
		"componentType":5126,
		"count":2872,
		"byteOffset":12,
		"min":[-0.9998629093170166,
		-0.9999709129333496,
		-1.0],
		"max":[0.9998629093170166,
		0.9999709725379944,
		1.0]
	},
	{
		"bufferView":1,
		"type":"VEC2",
		"componentType":5126,
		"count":2872,
		"byteOffset":24,
		"min":[0.003006997983902693,
		-0.997861921787262],
		"max":[0.9938498735427856,
		-0.0012378692626953126]
	}],
	"bufferViews":[{
		"buffer":0,
		"byteOffset":0,
		"byteLength":20490,
		"target":34963
	},
	{
		"buffer":0,
		"byteOffset":20492,
		"byteLength":91904,
		"target":34962,
		"byteStride":32
	}],
	"buffers":[{
		"uri":"data:application/octet-stream;base64,",
		"byteLength":112396
	}],
	"images":[{
		"uri":"data:image/jpeg;base64,"
	}],
	"materials":[{
		"pbrMetallicRoughness":{
			"baseColorTexture":{
				"index":0
			},
			"baseColorFactor":[0.5879999995231628,
			0.5879999995231628,
			0.5879999995231628,
			1.0],
			"metallicFactor":1.0,
			"roughnessFactor":1.0
		},
		"emissiveFactor":[0.0,
		0.0,
		0.0],
		"alphaMode":"OPAQUE",
		"doubleSided":false,
		"name":"Material #45"
	}]
}